<svg width="113" height="110" viewBox="0 0 113 110" fill="none" xmlns="http://www.w3.org/2000/svg">
<rect x="0.5" y="0.5" width="112" height="109" rx="10.5" fill="red" stroke="red"/>
<path d="M47.8825 96.225C47.1175 96.225 46.4275 96.095 45.8125 95.835C45.2025 95.575 44.6975 95.205 44.2975 94.725C43.9025 94.24 43.645 93.6675 43.525 93.0075L44.905 92.79C45.08 93.47 45.4425 94.0025 45.9925 94.3875C46.5475 94.7675 47.2 94.9575 47.95 94.9575C48.435 94.9575 48.8725 94.8825 49.2625 94.7325C49.6575 94.5775 49.97 94.3575 50.2 94.0725C50.43 93.7875 50.545 93.45 50.545 93.06C50.545 92.82 50.5025 92.615 50.4175 92.445C50.3375 92.27 50.225 92.1225 50.08 92.0025C49.94 91.8775 49.78 91.7725 49.6 91.6875C49.42 91.6025 49.2325 91.5325 49.0375 91.4775L46.285 90.66C45.985 90.57 45.695 90.4575 45.415 90.3225C45.135 90.1825 44.885 90.01 44.665 89.805C44.445 89.595 44.27 89.345 44.14 89.055C44.01 88.76 43.945 88.4125 43.945 88.0125C43.945 87.3725 44.11 86.8275 44.44 86.3775C44.775 85.9225 45.2275 85.575 45.7975 85.335C46.3675 85.095 47.01 84.9775 47.725 84.9825C48.45 84.9875 49.0975 85.1175 49.6675 85.3725C50.2425 85.6225 50.7175 85.9825 51.0925 86.4525C51.4725 86.9225 51.7275 87.485 51.8575 88.14L50.44 88.3875C50.365 87.9475 50.1975 87.57 49.9375 87.255C49.6825 86.935 49.3625 86.69 48.9775 86.52C48.5925 86.345 48.17 86.255 47.71 86.25C47.27 86.245 46.8725 86.315 46.5175 86.46C46.1625 86.605 45.88 86.8075 45.67 87.0675C45.46 87.3225 45.355 87.6175 45.355 87.9525C45.355 88.2825 45.45 88.55 45.64 88.755C45.83 88.955 46.0625 89.115 46.3375 89.235C46.6175 89.35 46.89 89.445 47.155 89.52L49.21 90.1125C49.445 90.1775 49.715 90.2675 50.02 90.3825C50.33 90.4975 50.63 90.66 50.92 90.87C51.21 91.075 51.45 91.35 51.64 91.695C51.83 92.035 51.925 92.465 51.925 92.985C51.925 93.505 51.82 93.9675 51.61 94.3725C51.405 94.7775 51.1175 95.1175 50.7475 95.3925C50.3775 95.6625 49.9475 95.8675 49.4575 96.0075C48.9675 96.1525 48.4425 96.225 47.8825 96.225ZM57.0082 96.225C56.2132 96.225 55.5182 96.05 54.9232 95.7C54.3332 95.345 53.8732 94.8525 53.5432 94.2225C53.2132 93.5875 53.0482 92.8475 53.0482 92.0025C53.0482 91.1175 53.2107 90.3525 53.5357 89.7075C53.8607 89.0575 54.3132 88.5575 54.8932 88.2075C55.4782 87.8525 56.1632 87.675 56.9482 87.675C57.7632 87.675 58.4557 87.8625 59.0257 88.2375C59.6007 88.6125 60.0307 89.1475 60.3157 89.8425C60.6057 90.5375 60.7307 91.365 60.6907 92.325H59.3407V91.845C59.3257 90.85 59.1232 90.1075 58.7332 89.6175C58.3432 89.1225 57.7632 88.875 56.9932 88.875C56.1682 88.875 55.5407 89.14 55.1107 89.67C54.6807 90.2 54.4657 90.96 54.4657 91.95C54.4657 92.905 54.6807 93.645 55.1107 94.17C55.5407 94.695 56.1532 94.9575 56.9482 94.9575C57.4832 94.9575 57.9482 94.835 58.3432 94.59C58.7382 94.345 59.0482 93.9925 59.2732 93.5325L60.5557 93.975C60.2407 94.69 59.7657 95.245 59.1307 95.64C58.5007 96.03 57.7932 96.225 57.0082 96.225ZM54.0157 92.325V91.2525H60.0007V92.325H54.0157ZM62.5105 96V84.975H63.8455V96H62.5105ZM66.2459 96V84.975H67.5809V96H66.2459Z" fill="black"/>
<g clip-path="url(#clip0_436_53)">
<path fill-rule="evenodd" clip-rule="evenodd" d="M26.0765 70V45.8919C25.0138 46.3345 23.8278 46.3896 22.7282 46.0474C21.9985 45.8077 21.3556 45.3605 20.8794 44.7613C20.4036 44.1658 20.109 43.4476 20.0302 42.6914C19.9697 41.996 20.0505 41.2955 20.2677 40.6317C20.4849 39.9678 20.8343 39.3541 21.2949 38.827V38.827C21.3473 38.7599 21.408 38.6996 21.4756 38.6475L51.5983 15.2872C51.7916 15.1124 52.0408 15.0112 52.302 15.0013C52.5632 14.9915 52.8194 15.0736 53.0255 15.2333L75.5122 32.5816C74.9729 32.7017 74.4402 32.8495 73.9163 33.0243C71.2706 33.8662 69.0096 35.61 67.5329 37.9476C61.4385 33.0721 53.8807 27.1438 52.5498 26.1149C50.1409 27.9454 29.0635 44.0614 29.0635 44.7553V70H26.0765ZM83.889 45.0484L83.6722 43.6366C83.9631 43.6004 84.2308 43.46 84.4249 43.2418C84.5977 43.0477 84.6883 42.7948 84.6779 42.5359C84.6704 42.3902 84.6302 42.2481 84.5604 42.1198C84.4906 41.9914 84.3929 41.8802 84.2744 41.7941C83.946 41.5787 83.5507 41.4874 83.1603 41.5369C82.7879 41.5262 82.4249 41.6542 82.1426 41.8958C82.0332 42.0011 81.9489 42.1293 81.8958 42.2711C81.8426 42.4129 81.822 42.5647 81.8354 42.7154C81.8495 42.9271 81.9109 43.133 82.0151 43.3182C82.1192 43.5034 82.2636 43.6632 82.4376 43.7862L82.3232 44.9826L78.1077 44.4741L78.2161 40.6635L79.5591 40.6037L79.6915 43.2897L80.9743 43.4512C80.8006 43.1582 80.7014 42.8276 80.6852 42.488C80.6634 42.1881 80.7058 41.8869 80.8096 41.6044C80.9134 41.3219 81.0762 41.0644 81.2874 40.8489C81.5187 40.6154 81.7942 40.4296 82.098 40.3022C82.4019 40.1749 82.7281 40.1086 83.0579 40.1071C83.6505 40.0696 84.2389 40.2273 84.7321 40.5558C85.0578 40.7717 85.3257 41.0632 85.5125 41.4051C85.6993 41.747 85.7994 42.129 85.804 42.518C85.8582 43.1247 85.6892 43.7304 85.3283 44.2229C84.9702 44.6813 84.4484 44.9854 83.8709 45.0723L83.889 45.0484ZM93.4521 54.6199C93.8146 55.1985 94.0103 55.8647 94.0182 56.5461C94.0182 60.0876 88.4899 62.965 81.6849 62.965C74.8799 62.965 69.3335 60.0816 69.3335 56.5401C69.3413 55.8587 69.5371 55.1925 69.8996 54.6139C71.4653 57.2281 76.1445 59.1185 81.6668 59.1185C87.1891 59.1185 91.8683 57.2281 93.4341 54.6139L93.4521 54.6199ZM93.4521 61.6369C93.8152 62.213 94.0111 62.8776 94.0182 63.5572C94.0182 67.0987 88.4899 69.9761 81.6849 69.9761C74.8799 69.9761 69.3335 67.0927 69.3335 63.5512C69.3461 62.8818 69.5417 62.2283 69.8996 61.6609C71.4653 64.2691 76.1445 66.1595 81.6668 66.1595C87.1891 66.1595 91.8683 64.2691 93.4341 61.6609L93.4521 61.6369ZM69.743 42.3146C71.1461 39.5628 75.9518 37.5288 81.6668 37.5288C88.4718 37.5288 94.0001 40.4062 94.0001 43.9537C94.0001 47.5011 88.4718 50.3845 81.6668 50.3845C76.006 50.3845 71.1883 48.3805 69.7731 45.6586C69.0324 44.4622 69.737 42.3026 69.743 42.3146V42.3146ZM81.6668 38.8509C87.2674 38.8509 91.8021 40.6455 91.8021 42.7991C91.8021 44.9527 87.2674 46.7473 81.6668 46.7473C76.0662 46.7473 71.5316 44.9527 71.5316 42.7991C71.5316 40.6455 76.0722 38.8509 81.6668 38.8509ZM93.4702 48.2429C93.8034 48.8009 93.982 49.4366 93.9881 50.0854C93.9881 53.6328 88.4598 56.5102 81.6548 56.5102C74.8497 56.5102 69.3214 53.6388 69.3214 50.0854C69.3306 49.437 69.509 48.8022 69.8393 48.2429C71.3629 50.887 76.0783 52.8192 81.6548 52.8192C87.2313 52.8192 91.9586 50.893 93.4702 48.2429ZM53.4411 44.2049V53.6388H61.9624C61.9601 51.3001 61.0894 49.0445 59.5171 47.3038C57.9448 45.5631 55.7814 44.4597 53.4411 44.2049V44.2049ZM53.4411 55.6368V63.8264H61.9624V55.6368H53.4411ZM51.4357 63.8204V55.6368H42.9144V63.8264H51.4357V63.8204ZM51.4357 53.6508V44.2049C49.0995 44.4592 46.9394 45.5592 45.3676 47.2948C43.7959 49.0305 42.9226 51.2803 42.9144 53.6149V53.6149L51.4357 53.6508ZM38.7892 68.0079H66.0815V70H38.7892V67.978V68.0079ZM52.4354 42.159C55.4899 42.1669 58.4171 43.3758 60.577 45.5213C62.7368 47.6669 63.9538 50.5746 63.9617 53.6089V65.8065H40.909V53.6089C40.9169 50.5746 42.1339 47.6669 44.2938 45.5213C46.4537 43.3758 49.3808 42.1669 52.4354 42.159V42.159ZM69.5021 16.8605L78.5353 17.2314V29.3931L69.5021 23.4528V16.8724V16.8605Z" fill="black"/>
</g>
<defs>
<clipPath id="clip0_436_53">
<rect width="74" height="55" fill="red" transform="translate(20 15)"/>
</clipPath>
</defs>
</svg>
