<svg width="97" height="18" viewBox="0 0 97 18" fill="none" xmlns="http://www.w3.org/2000/svg">
<g clip-path="url(#clip0_501_393)">
<path fill-rule="evenodd" clip-rule="evenodd" d="M81.7405 3.77493C82.8028 3.77493 83.6638 2.92987 83.6638 1.88745C83.6638 0.845044 82.8028 0 81.7405 0C80.6782 0 79.817 0.845044 79.817 1.88745C79.817 2.92987 80.6782 3.77493 81.7405 3.77493ZM61.2234 5.87C57.8188 5.87 55.0554 8.58793 55.0554 11.9225C55.0554 15.2569 57.8252 17.9749 61.2234 17.9749C64.6215 17.9749 67.3914 15.2569 67.3914 11.9225C67.3914 8.58793 64.628 5.87 61.2234 5.87ZM61.2234 15.1122C59.4345 15.1122 57.9791 13.6841 57.9791 11.9288C57.9791 10.1734 59.4345 8.74524 61.2234 8.74524C63.0121 8.74524 64.4676 10.1734 64.4676 11.9288C64.4676 13.6841 63.0121 15.1122 61.2234 15.1122ZM48.1566 5.85743C48.3168 5.85743 48.4708 5.86372 48.631 5.87629C49.9774 5.98954 51.2149 6.59981 52.1189 7.59389C53.023 8.58166 53.5231 9.85888 53.5231 11.1863V17.7295H50.5737V11.1045C50.5673 9.80217 49.4709 8.73895 48.1373 8.73895C48.0604 8.73895 47.977 8.74524 47.8937 8.75152C46.7012 8.87106 45.7009 9.97841 45.7009 11.1737V17.7295H42.7516V11.1234C42.7452 9.81474 41.6552 8.74524 40.3216 8.74524C40.2447 8.74524 40.1614 8.75152 40.078 8.75781H40.078H40.078C38.8918 8.87735 37.8852 9.9847 37.8852 11.1863V17.7295H35V11.1045C35 8.21046 37.4043 5.85743 40.3537 5.85743C41.8283 5.85743 43.2325 6.46142 44.2455 7.51208C45.2586 6.4551 46.6691 5.85743 48.1566 5.85743ZM71.9308 0.283117H68.9814V17.7421H71.9308V0.283117ZM74.6237 0.283117H77.5728V17.7421H74.6237V0.283117ZM83.2151 6.1594H80.2657V17.7358H83.2151V6.1594ZM95.288 7.56872C96.3909 8.66974 97 10.1168 97 11.6519V12.9794H88.0301C88.4277 14.3761 89.7227 15.3577 91.2231 15.3577C92.3965 15.3577 93.4544 14.7725 94.0635 13.7848L94.1852 13.5897L96.6218 14.7662L96.4808 14.999C95.3715 16.8298 93.3389 17.9686 91.172 17.9686H91.1655C89.5112 17.9686 87.9596 17.3269 86.7863 16.163C85.6132 14.999 84.9782 13.4638 84.9976 11.8407C85.0167 10.2489 85.6579 8.75781 86.7992 7.63164C87.9405 6.50545 89.4665 5.87629 91.0821 5.85743H91.1591C92.7171 5.85743 94.1787 6.4677 95.288 7.56872ZM94.0186 10.5887C93.5954 9.35549 92.39 8.48728 91.0436 8.48728C89.6972 8.48728 88.4918 9.35549 88.0751 10.5887H94.0186Z" fill="black"/>
</g>
<path d="M18 2H2C0.89 2 0.00999999 2.89 0.00999999 4L0 16C0 17.11 0.89 18 2 18H18C19.11 18 20 17.11 20 16V4C20 2.89 19.11 2 18 2ZM18 16H2V10H18V16ZM18 6H2V4H18V6Z" fill="black"/>
<defs>
<clipPath id="clip0_501_393">
<rect width="62" height="18" fill="white" transform="translate(35)"/>
</clipPath>
</defs>
</svg>
