<svg width="95" height="25" viewBox="0 0 95 25" fill="none" xmlns="http://www.w3.org/2000/svg">
<g clip-path="url(#clip0_501_392)">
<path d="M95 12.8598C95 8.60642 92.9333 5.25023 88.9834 5.25023C85.0166 5.25023 82.6166 8.60654 82.6166 12.8266C82.6166 17.8276 85.45 20.353 89.5166 20.353C91.5 20.353 93 19.9044 94.1333 19.2731V15.9501C93.0001 16.5151 91.7 16.864 90.05 16.864C88.4333 16.864 87 16.2991 86.8167 14.3386H94.9667C94.9667 14.1224 95 13.2585 95 12.8598ZM86.7666 11.2814C86.7666 9.40397 87.9167 8.62301 88.9667 8.62301C89.9833 8.62301 91.0667 9.40397 91.0667 11.2814H86.7666ZM76.1834 5.25023C74.55 5.25023 73.5 6.01449 72.9167 6.54626L72.6999 5.51612H69.0334V24.8888L73.2 24.0083L73.2167 19.3063C73.8167 19.7383 74.7 20.353 76.1667 20.353C79.15 20.353 81.8667 17.9605 81.8667 12.6937C81.85 7.87535 79.1 5.25023 76.1833 5.25023H76.1834ZM75.1834 16.6978C74.2 16.6978 73.6166 16.3489 73.2167 15.9169L73.2 9.7528C73.6333 9.27103 74.2333 8.93878 75.1834 8.93878C76.7 8.93878 77.75 10.6334 77.75 12.8099C77.75 15.0363 76.7166 16.6978 75.1834 16.6978ZM63.3 4.26998L67.4833 3.37278V0L63.3 0.880607V4.26986V4.26998ZM63.3 5.53271H67.4833V20.0706H63.3V5.53271ZM58.8167 6.76215L58.55 5.53271H54.95V20.0706H59.1167V10.2181C60.0999 8.93878 61.7667 9.17138 62.2834 9.35409V5.53271C61.75 5.33329 59.8 4.96776 58.8167 6.76215ZM50.4833 1.92734L46.4166 2.79124L46.4 16.0996C46.4 18.5588 48.25 20.3696 50.7167 20.3696C52.0834 20.3696 53.0833 20.1204 53.6333 19.8214V16.4486C53.1001 16.6646 50.4666 17.4289 50.4666 14.9699V9.07161H53.6333V5.53271H50.4666L50.4833 1.92734ZM39.2166 9.7528C39.2166 9.10491 39.75 8.85561 40.6334 8.85561C41.9 8.85561 43.5 9.23785 44.7666 9.91904V6.01449C43.3834 5.46624 42.0167 5.25023 40.6334 5.25023C37.25 5.25023 35 7.01145 35 9.95234C35 14.5378 41.3333 13.8069 41.3333 15.7841C41.3333 16.5482 40.6667 16.7975 39.7333 16.7975C38.35 16.7975 36.5833 16.2326 35.1833 15.4683V19.4227C36.7333 20.0873 38.3 20.3696 39.7333 20.3696C43.2 20.3696 45.5833 18.6584 45.5833 15.6843C45.5667 10.7332 39.2166 11.6137 39.2166 9.7528Z" fill="#635BFF"/>
</g>
<path d="M18 4H2C0.89 4 0.00999999 4.89 0.00999999 6L0 18C0 19.11 0.89 20 2 20H18C19.11 20 20 19.11 20 18V6C20 4.89 19.11 4 18 4ZM18 18H2V12H18V18ZM18 8H2V6H18V8Z" fill="black"/>
<defs>
<clipPath id="clip0_501_392">
<rect width="60" height="25" fill="white" transform="translate(35)"/>
</clipPath>
</defs>
</svg>
